<svg xmlns="http://www.w3.org/2000/svg" width="24.394" height="24.259" viewBox="0 0 24.394 24.259">
  <g id="Ski2" transform="translate(0.205 0.205)">
    <line id="Line_33" data-name="Line 33" x2="0.2" y2="2.26" transform="translate(20.09 10.72)" fill="none" stroke="#fff" stroke-linejoin="round" stroke-width="1"/>
    <line id="Line_34" data-name="Line 34" x1="1.46" y1="1.78" transform="translate(7.52 6.03)" fill="none" stroke="#fff" stroke-linejoin="round" stroke-width="1"/>
    <line id="Line_35" data-name="Line 35" x1="1.25" y2="10.8" transform="translate(20.79 12.7)" fill="none" stroke="#fff" stroke-linecap="round" stroke-linejoin="round" stroke-width="1"/>
    <line id="Line_36" data-name="Line 36" x1="5.66" y1="6.71" transform="translate(0.5 0.5)" fill="none" stroke="#fff" stroke-linecap="round" stroke-linejoin="round" stroke-width="1"/>
    <path id="Path_267" data-name="Path 267" d="M17.09,7.31l1.94,3.51,2.35-.22a1.133,1.133,0,0,1,1.23.98h0a1.129,1.129,0,0,1-1,1.26l-2.45.27A2.259,2.259,0,0,1,16.96,12l-.54-.93" fill="none" stroke="#fff" stroke-linejoin="round" stroke-width="1"/>
    <path id="Path_268" data-name="Path 268" d="M14.28,23.5l.96-6.18-1.82-1.28" fill="none" stroke="#fff" stroke-linejoin="round" stroke-width="1"/>
    <path id="Path_269" data-name="Path 269" d="M15.3,13.48l1.93,1.76a2.606,2.606,0,0,1,.8,2.39L16.95,23.5" fill="none" stroke="#fff" stroke-linejoin="round" stroke-width="1"/>
    <path id="Path_270" data-name="Path 270" d="M4.54,13.24l5.14,1.95.45-.72A54.968,54.968,0,0,0,13.5,8.13h0" fill="none" stroke="#fff" stroke-linejoin="round" stroke-width="1"/>
    <path id="Path_271" data-name="Path 271" d="M13.9,8.29,10.36,6.63,8.04,8.59a1.154,1.154,0,0,1-1.62-.13h0a1.157,1.157,0,0,1,.13-1.63L9.16,4.61a2.078,2.078,0,0,1,2.2-.31l4.71,2.12a2.186,2.186,0,0,1,1.1,2.89l-.54,1.21a23.633,23.633,0,0,1-4.43,6.62h0a2.863,2.863,0,0,1-3.11.69L4.58,16.07" fill="none" stroke="#fff" stroke-linecap="round" stroke-linejoin="round" stroke-width="1"/>
    <circle id="Ellipse_3" data-name="Ellipse 3" cx="2.1" cy="2.1" r="2.1" transform="translate(15.04 2.51)" fill="none" stroke="#fff" stroke-linecap="round" stroke-linejoin="round" stroke-width="1"/>
    <line id="Line_37" data-name="Line 37" x2="3.15" y2="2.14" transform="translate(11.93 11.34)" fill="none" stroke="#fff" stroke-linejoin="round" stroke-width="1"/>
    <path id="Path_272" data-name="Path 272" d="M12.26,23.5h9.43a2.136,2.136,0,0,0,1.81-1h0" fill="none" stroke="#fff" stroke-linecap="round" stroke-linejoin="round" stroke-width="1"/>
    <path id="Path_273" data-name="Path 273" d="M4.49,11.21v9.43a2.136,2.136,0,0,0,1,1.81h0" fill="none" stroke="#fff" stroke-linecap="round" stroke-linejoin="round" stroke-width="1"/>
  </g>
</svg>
