<svg xmlns="http://www.w3.org/2000/svg" width="22.097" height="21.611" viewBox="0 0 22.097 21.611">
  <g id="Allidrett" transform="translate(-1065.404 -924.901)">
    <path id="Path_446" data-name="Path 446" d="M16.683,8.891a7.8,7.8,0,0,1-.037-.807,6.61,6.61,0,1,1,8.9,6.316" transform="translate(1057.135 924)" fill="none" stroke="#fff" stroke-linecap="round" stroke-linejoin="round" stroke-width="1"/>
    <path id="Path_447" data-name="Path 447" d="M30.369,12.641l-1.577-2.264-2.631.807-.055,2.75,2.6.908Z" transform="translate(1052.405 919.608)" fill="none" stroke="#fff" stroke-linecap="round" stroke-linejoin="round" stroke-width="1"/>
    <path id="Path_448" data-name="Path 448" d="M40.709,10.588l-.037-.009-1.659,2.2,1.577,2.255.037-.009" transform="translate(1045.952 919.507)" fill="none" stroke="#fff" stroke-linecap="round" stroke-linejoin="round" stroke-width="1"/>
    <path id="Path_449" data-name="Path 449" d="M29.718,1.6l-.018.028,1.577,2.255,2.64-.8V3.043" transform="translate(1050.608 923.999)" fill="none" stroke="#fff" stroke-linecap="round" stroke-linejoin="round" stroke-width="1"/>
    <path id="Path_450" data-name="Path 450" d="M17.288,7.333l2.64-.807.046-2.75-.028-.018" transform="translate(1056.814 922.917)" fill="none" stroke="#fff" stroke-linecap="round" stroke-linejoin="round" stroke-width="1"/>
    <path id="Path_451" data-name="Path 451" d="M33.935,24.493v-.037l-2.613-.9-1.2,1.6" transform="translate(1050.397 913.017)" fill="none" stroke="#fff" stroke-linecap="round" stroke-linejoin="round" stroke-width="1"/>
    <path id="Path_452" data-name="Path 452" d="M12.714,26.638a6.5,6.5,0,0,1-1.54,1.412,6.61,6.61,0,1,1,2.933-6.087" transform="translate(1065 916.831)" fill="none" stroke="#fff" stroke-linecap="round" stroke-linejoin="round" stroke-width="1"/>
    <path id="Path_453" data-name="Path 453" d="M8.708,33A7.636,7.636,0,0,0,2.75,23.833" transform="translate(1064.083 912.88)" fill="none" stroke="#fff" stroke-linecap="round" stroke-linejoin="round" stroke-width="1"/>
    <path id="Path_454" data-name="Path 454" d="M13.756,15.968A7.848,7.848,0,0,0,18.8,24.924" transform="translate(1058.66 916.812)" fill="none" stroke="#fff" stroke-linecap="round" stroke-linejoin="round" stroke-width="1"/>
    <path id="Path_455" data-name="Path 455" d="M14.135,21.853,3.117,29.15" transform="translate(1063.9 913.87)" fill="none" stroke="#fff" stroke-linecap="round" stroke-linejoin="round" stroke-width="1"/>
    <path id="Path_456" data-name="Path 456" d="M27.9,34.558A3.905,3.905,0,1,0,24,30.653,3.905,3.905,0,0,0,27.9,34.558Z" transform="translate(1053.459 911.422)" fill="none" stroke="#fff" stroke-linecap="round" stroke-linejoin="round" stroke-width="1"/>
    <path id="Path_457" data-name="Path 457" d="M28.389,37.044c.486-1.613,1.531-1.412,2.154-2.668a1.694,1.694,0,0,0-.752-2.273l-.027-.018a1.694,1.694,0,0,0-2.273.752c-.633,1.256.147,1.971-.853,3.328" transform="translate(1052.139 908.845)" fill="none" stroke="#fff" stroke-linecap="round" stroke-linejoin="round" stroke-width="1"/>
  </g>
</svg>
