<svg xmlns="http://www.w3.org/2000/svg" width="24" height="22.9" viewBox="0 0 24 22.9">
  <g id="haandball" transform="translate(0 -0.55)">
    <path id="Path_266" data-name="Path 266" d="M9,2.64a9.3,9.3,0,1,1,5.2,17.01,9.6,9.6,0,0,1-1.42-.11" fill="none" stroke="#fff" stroke-miterlimit="10" stroke-width="1"/>
    <line id="Line_21" data-name="Line 21" y1="2.9" transform="translate(14.2 3.95)" fill="none" stroke="#fff" stroke-miterlimit="10" stroke-width="1"/>
    <line id="Line_22" data-name="Line 22" y1="1.65" x2="2.26" transform="translate(11.94 6.85)" fill="none" stroke="#fff" stroke-miterlimit="10" stroke-width="1"/>
    <line id="Line_23" data-name="Line 23" x2="3.3" y2="2.4" transform="translate(14.2 6.85)" fill="none" stroke="#fff" stroke-miterlimit="10" stroke-width="1"/>
    <line id="Line_24" data-name="Line 24" x1="3.2" y1="2.4" transform="translate(11 1.55)" fill="none" stroke="#fff" stroke-miterlimit="10" stroke-width="1"/>
    <line id="Line_25" data-name="Line 25" y1="0.9" x2="2.8" transform="translate(17.5 8.35)" fill="none" stroke="#fff" stroke-miterlimit="10" stroke-width="1"/>
    <line id="Line_26" data-name="Line 26" x2="1.7" y2="2.3" transform="translate(16.3 13.15)" fill="none" stroke="#fff" stroke-miterlimit="10" stroke-width="1"/>
    <line id="Line_27" data-name="Line 27" y1="2.4" x2="3.2" transform="translate(14.2 1.55)" fill="none" stroke="#fff" stroke-miterlimit="10" stroke-width="1"/>
    <line id="Line_28" data-name="Line 28" x1="1.2" y2="3.8" transform="translate(20.3 4.55)" fill="none" stroke="#fff" stroke-miterlimit="10" stroke-width="1"/>
    <line id="Line_29" data-name="Line 29" x2="3.2" y2="2.3" transform="translate(20.3 8.35)" fill="none" stroke="#fff" stroke-miterlimit="10" stroke-width="1"/>
    <line id="Line_30" data-name="Line 30" x1="3.9" transform="translate(18 15.45)" fill="none" stroke="#fff" stroke-miterlimit="10" stroke-width="1"/>
    <line id="Line_31" data-name="Line 31" x1="1.2" y2="3.8" transform="translate(16.8 15.45)" fill="none" stroke="#fff" stroke-miterlimit="10" stroke-width="1"/>
    <line id="Line_32" data-name="Line 32" x1="0.69" y2="2.25" transform="translate(16.81 9.25)" fill="none" stroke="#fff" stroke-miterlimit="10" stroke-width="1"/>
    <g id="g145">
      <g id="g151">
        <path id="path153" d="M9.2,11.45V3.65a1.58,1.58,0,0,0-1.6-1.6,1.5,1.5,0,0,0-1.5,1.6v7.8" fill="none" stroke="#fff" stroke-linecap="round" stroke-miterlimit="10" stroke-width="1"/>
      </g>
      <g id="g155">
        <path id="path157" d="M2.9,11.45V7.95a1.155,1.155,0,0,0-1.2-1.2A1.155,1.155,0,0,0,.5,7.95v9.5c.3,4.9,3.3,5.5,6.2,5.5a5.838,5.838,0,0,0,5.6-3.1c.1-.2.5-.8.9-1.5.6-1,1.2-1.8,1.6-2.5.5-.8,1.1-1.6,1.7-2.4.1-.2.3-.3.3-.4a.908.908,0,0,0,.3-.7,1.426,1.426,0,0,0-1.9-1.3c-.1,0-.2,0-.3.2a11.585,11.585,0,0,0-2.4,2.8h0c-.1.2-.5.1-.5-.1h0V6.25a1.4,1.4,0,1,0-2.8,0v5.3" fill="none" stroke="#fff" stroke-linecap="round" stroke-miterlimit="10" stroke-width="1"/>
      </g>
      <g id="g159">
        <path id="path161" d="M6.1,11.45V5.55a1.708,1.708,0,0,0-1.5-1.6A1.561,1.561,0,0,0,3,5.45v5.9" fill="none" stroke="#fff" stroke-linecap="round" stroke-miterlimit="10" stroke-width="1"/>
      </g>
    </g>
  </g>
</svg>
