<?xml version="1.0" encoding="UTF-8"?>
<svg id="Layer_1" xmlns="http://www.w3.org/2000/svg" version="1.1" viewBox="0 0 472.37 481.82">
  <!-- Generator: Adobe Illustrator 30.1.0, SVG Export Plug-In . SVG Version: 2.1.1 Build 136)  -->
  <defs>
    <style>
      .st0 {
        fill: #ffd100;
      }

      .st1 {
        fill: #007934;
      }

      .st2 {
        fill: #fff;
      }
    </style>
  </defs>
  <path class="st2" d="M180.11,137.83c.58-.86,1.01-1.83,1.27-2.9.27-1.08.4-2.2.4-3.34,0-1.19-.14-2.36-.4-3.48-.26-1.11-.69-2.11-1.27-2.97-.57-.86-1.33-1.55-2.25-2.06-.92-.51-2.06-.77-3.39-.77s-2.47.26-3.39.77c-.92.51-1.68,1.21-2.25,2.06-.58.87-1,1.87-1.27,2.98-.27,1.12-.4,2.29-.4,3.48,0,1.14.14,2.27.4,3.34.26,1.07.69,2.04,1.27,2.9.57.85,1.33,1.54,2.25,2.05.92.51,2.06.77,3.39.77s2.47-.26,3.39-.77c.92-.51,1.68-1.2,2.25-2.05Z"/>
  <polygon class="st2" points="127.27 47.06 133.83 47.06 130.61 37.67 127.27 47.06"/>
  <path class="st2" d="M314.17,38.81c0-1.27-.33-2.2-.97-2.76-.65-.57-1.66-.86-3-.86h-6.45s0,7.36,0,7.36h6.45c1.33,0,2.34-.3,3-.88.65-.57.97-1.54.97-2.86Z"/>
  <path class="st2" d="M241.23,127.86c.65-.48.96-1.24.96-2.35,0-.61-.11-1.1-.32-1.48-.21-.38-.5-.68-.85-.89-.36-.22-.79-.37-1.26-.46-.49-.09-1.01-.13-1.53-.13h-5.49s0,6.04,0,6.04h5.95c1.03,0,1.89-.25,2.55-.74Z"/>
  <polygon class="st2" points="266.27 134.37 272.83 134.37 269.6 124.97 266.27 134.37"/>
  <path class="st2" d="M284.75,79.73c-.65-.57-1.66-.86-3-.86h-6.45s0,7.36,0,7.36h6.45c1.33,0,2.34-.3,3-.88.65-.57.97-1.54.97-2.86,0-1.27-.33-2.2-.97-2.76Z"/>
  <polygon class="st2" points="243.89 90.7 250.45 90.7 247.22 81.31 243.89 90.7"/>
  <path class="st2" d="M242.06,139.63c.38-.25.69-.6.92-1.03.23-.43.34-1,.34-1.68,0-1.34-.38-2.31-1.12-2.87-.76-.58-1.79-.87-3.05-.87h-6.42s0,7.17,0,7.17h6.3c.58,0,1.14-.06,1.66-.17.51-.11.97-.3,1.36-.55Z"/>
  <path class="st2" d="M15.56,13.26l25.23,147.67,390.88-.11,25.14-147.69-441.25.13ZM383.95,30c1.8,0,3.5.29,5.06.87,1.56.58,2.93,1.45,4.08,2.61,1.14,1.16,2.05,2.62,2.69,4.34.64,1.73.97,3.78.97,6.09,0,2.03-.26,3.93-.78,5.65-.52,1.73-1.32,3.24-2.39,4.5-1.06,1.26-2.41,2.27-3.99,2.99-1.59.72-3.48,1.09-5.62,1.09h-12.17s0-28.13,0-28.13h12.17ZM284.3,30.03v5.56s-14.62,0-14.62,0v5.5s13.43,0,13.43,0v5.17s-13.42,0-13.42,0v6.35s14.94,0,14.94,0v5.56s-21.46,0-21.46,0v-28.14s21.15,0,21.15,0ZM237.75,30.04v22.58s13.51,0,13.51,0v5.56s-20.03,0-20.03,0v-28.14s6.52,0,6.52,0ZM192.63,38.4c.63-1.79,1.54-3.37,2.72-4.71,1.18-1.34,2.65-2.4,4.36-3.16,1.71-.76,3.67-1.14,5.81-1.15,1.44,0,2.85.22,4.2.65,1.35.43,2.59,1.08,3.68,1.92,1.09.84,2,1.89,2.71,3.13.71,1.24,1.15,2.68,1.31,4.28l.02.24h-6.23s-.04-.17-.04-.17c-.35-1.49-1.03-2.63-2.01-3.37-.99-.74-2.21-1.12-3.63-1.12-1.33,0-2.47.26-3.39.77-.92.51-1.68,1.21-2.25,2.06-.58.87-1,1.87-1.27,2.98-.27,1.11-.4,2.29-.4,3.48,0,1.14.14,2.27.4,3.34.26,1.07.69,2.04,1.27,2.9.57.85,1.33,1.54,2.25,2.05.92.51,2.06.77,3.39.77,1.95,0,3.47-.5,4.53-1.47,1.01-.94,1.62-2.3,1.83-4.06h-6.11s0-4.98,0-4.98h12.08s0,15.41,0,15.41h-4.28s-.57-2.86-.57-2.86c-1.03,1.23-2.17,2.11-3.4,2.63-1.34.56-2.71.85-4.08.85-2.14,0-4.1-.38-5.81-1.12-1.72-.75-3.18-1.79-4.36-3.1-1.18-1.31-2.09-2.87-2.72-4.63-.63-1.76-.95-3.68-.95-5.72,0-2.08.32-4.05.94-5.83ZM84.59,30.08l6.36,18.69,6.01-18.69h8.95s0,28.14,0,28.14h-6.14s0-18.77,0-18.77l-6.49,18.77h-5.01s-.05-.15-.05-.15l-6.45-18.44v18.59s-6.14,0-6.14,0v-28.14s8.94,0,8.94,0ZM108.13,106.85l-12.8-9.42-12.8,9.43,5.04-15.3-12.97-9.64h15.91s4.82-14.91,4.82-14.91l4.71,14.91h15.96s-12.85,9.64-12.85,9.64l4.99,15.29ZM123.36,58.21h-6.6s10.63-28.14,10.63-28.14h6.55s.05.14.05.14l10.48,27.99h-6.8s-2.1-6.17-2.1-6.17h-10.05s-2.17,6.17-2.17,6.17ZM140.13,128.93h11.6s0,5.17,0,5.17h-11.6s0,11.45,0,11.45h-6.53s0-28.14,0-28.14h19.91s0,5.55,0,5.55h-13.39s0,5.97,0,5.97ZM155.22,30.06h6.39s.06.1.06.1l11.24,18.05v-18.16s6.14,0,6.14,0v28.14s-6.42,0-6.42,0l-11.26-18.12v18.12s-6.14,0-6.14,0v-28.14ZM187.37,137.3c-.63,1.77-1.54,3.33-2.72,4.63-1.18,1.31-2.64,2.35-4.34,3.1-1.7.75-3.66,1.12-5.83,1.13-2.14,0-4.1-.38-5.81-1.12-1.72-.75-3.19-1.79-4.36-3.1-1.18-1.31-2.09-2.87-2.72-4.63-.63-1.76-.95-3.68-.95-5.72,0-2.08.32-4.05.94-5.83.63-1.79,1.54-3.37,2.72-4.71,1.18-1.34,2.65-2.4,4.36-3.16,1.71-.76,3.67-1.14,5.81-1.15,2.17,0,4.13.38,5.83,1.14,1.7.76,3.16,1.82,4.34,3.16,1.18,1.33,2.09,2.92,2.72,4.71.63,1.78.94,3.75.95,5.83,0,2.03-.32,3.96-.94,5.72ZM186.87,101.92c-1.45-.38-2.76-.98-3.88-1.8-1.12-.82-2.02-1.87-2.68-3.14-.66-1.27-.98-2.79-.96-4.53v-.22s6.33,0,6.33,0v.22c0,.89.16,1.65.48,2.27h0c.32.61.75,1.11,1.27,1.49.53.38,1.16.67,1.89.86,1.22.32,2.5.37,3.99.15.6-.09,1.16-.26,1.68-.5.51-.24.94-.58,1.28-1.01.33-.41.49-.95.49-1.59,0-.7-.21-1.24-.65-1.67-.46-.44-1.06-.82-1.81-1.12-.77-.31-1.65-.58-2.61-.8-.99-.23-2-.5-3-.78-1.03-.26-2.06-.58-3.05-.96-1-.38-1.9-.88-2.69-1.48-.8-.61-1.45-1.39-1.94-2.3-.49-.92-.74-2.04-.74-3.34,0-1.46.32-2.74.94-3.82.62-1.07,1.44-1.97,2.45-2.69,1-.71,2.14-1.24,3.41-1.59,2.72-.74,5.51-.63,8-.02,1.35.33,2.57.87,3.62,1.6,1.06.74,1.91,1.7,2.53,2.85.62,1.15.94,2.57.94,4.2v.22s-6.32,0-6.32,0v-.21c-.06-.79-.23-1.45-.51-1.96-.28-.51-.65-.91-1.11-1.2-.46-.29-1.01-.51-1.61-.63-1.02-.21-2.26-.29-3.46-.04-.46.1-.89.27-1.27.51-.38.24-.69.55-.92.91-.23.35-.35.8-.35,1.35,0,.5.09.91.28,1.2.18.3.56.58,1.13.85.59.28,1.43.56,2.48.84,1.07.28,2.48.65,4.21,1.09.51.1,1.24.29,2.16.56.93.28,1.87.72,2.79,1.33.93.61,1.74,1.43,2.41,2.45.68,1.03,1.03,2.35,1.03,3.94,0,1.29-.25,2.51-.75,3.62-.5,1.11-1.26,2.09-2.25,2.89-.99.8-2.23,1.44-3.68,1.88-1.45.44-3.15.67-5.05.67-1.54,0-3.05-.19-4.5-.57ZM209.93,145.53h-6.53s0-22.58,0-22.58h-8.3s0-5.56,0-5.56h23.13s0,5.55,0,5.55h-8.3s0,22.58,0,22.58ZM217.45,101.86v-22.58s-8.31,0-8.31,0v-5.56s23.13,0,23.13,0v5.56s-8.3,0-8.3,0v22.58s-6.52,0-6.52,0ZM249.01,141c-.56,1.05-1.32,1.92-2.26,2.58-.93.66-2.02,1.15-3.21,1.47-1.19.31-2.43.47-3.68.47h-13.64s0-28.13,0-28.13h13.25c1.33,0,2.56.11,3.65.35,1.11.24,2.07.63,2.87,1.18.81.55,1.44,1.29,1.88,2.2.44.91.66,2.03.66,3.35,0,1.43-.33,2.65-.99,3.62-.57.84-1.38,1.55-2.42,2.12,1.5.52,2.65,1.36,3.43,2.5.86,1.26,1.3,2.8,1.3,4.56,0,1.43-.28,2.68-.84,3.73ZM252.19,95.68h-10.05s-2.17,6.17-2.17,6.17h-6.6s.11-.29.11-.29l10.52-27.85h6.55s.05.14.05.14l10.48,27.99h-6.79s-2.1-6.17-2.1-6.17ZM276.67,145.51l-2.1-6.17h-10.05s-2.17,6.17-2.17,6.17h-6.6s.11-.29.11-.29l10.52-27.84h6.55s.05.14.05.14l10.48,27.99h-6.79ZM286.56,101.7c-.34-.9-.56-1.97-.64-3.21-.08-1.2-.19-2.37-.35-3.47-.2-1.39-.62-2.42-1.26-3.06-.63-.63-1.69-.94-3.14-.94h-5.87s0,10.83,0,10.83h-6.53s0-28.14,0-28.14h15.16c1.26,0,2.42.2,3.44.61,1.02.41,1.9.98,2.63,1.7.73.71,1.29,1.55,1.68,2.5.38.94.58,1.97.58,3.05,0,1.66-.35,3.12-1.06,4.34-.64,1.11-1.66,1.99-3.02,2.62.58.21,1.08.49,1.48.85.51.44.93.97,1.25,1.58.32.6.55,1.26.7,1.98.14.71.24,1.42.29,2.12.03.44.05.96.08,1.56.03.59.07,1.2.14,1.81.06.61.17,1.19.31,1.73.13.53.34.98.6,1.34l.26.35h-6.67s-.05-.14-.05-.14ZM290.57,145.51v-28.14s6.52,0,6.52,0v22.58s13.51,0,13.51,0v5.56s-20.03,0-20.03,0ZM315,58.01c-.34-.9-.56-1.98-.64-3.21-.08-1.19-.19-2.36-.35-3.47-.2-1.39-.62-2.42-1.26-3.06-.63-.63-1.68-.94-3.14-.94h-5.87s0,10.83,0,10.83h-6.53s0-28.14,0-28.14h15.16c1.26,0,2.42.2,3.44.61,1.02.41,1.9.98,2.63,1.69.73.72,1.29,1.56,1.68,2.5.38.94.58,1.97.58,3.05,0,1.66-.35,3.12-1.06,4.34-.64,1.11-1.66,1.99-3.02,2.62.58.21,1.08.49,1.48.85.51.44.93.97,1.25,1.58.32.6.55,1.26.7,1.98.14.71.24,1.42.3,2.12.03.44.05.96.08,1.56.03.58.07,1.19.13,1.81.06.61.17,1.19.31,1.73.13.52.34.98.61,1.34l.25.35h-6.67s-.05-.14-.05-.14ZM318.82,145.5v-28.14s6.52,0,6.52,0v22.58s13.51,0,13.51,0v5.56s-20.03,0-20.03,0ZM354.88,55.98c-2.12,1.85-5.1,2.79-8.83,2.79-3.79,0-6.77-.93-8.86-2.77-2.1-1.84-3.16-4.72-3.16-8.54v-17.44s6.52,0,6.52,0v17.44c0,.73.07,1.46.2,2.17.12.69.38,1.3.78,1.83.39.52.94.96,1.64,1.29.7.33,1.67.5,2.88.5,2.09,0,3.55-.46,4.33-1.38.79-.93,1.19-2.41,1.19-4.42v-17.44s6.52,0,6.52,0v17.44c0,3.8-1.08,6.67-3.21,8.53ZM389.9,106.77l-12.8-9.42-12.8,9.42,4.98-15.3-12.86-9.64h15.96s4.71-14.91,4.71-14.91l4.83,14.91h15.91s-12.97,9.64-12.97,9.64l5.05,15.29Z"/>
  <path class="st2" d="M378.31,52.58h5.21c.85,0,1.69-.14,2.49-.42.79-.27,1.5-.73,2.13-1.36.62-.64,1.13-1.48,1.5-2.5.38-1.03.57-2.31.57-3.81,0-1.38-.14-2.63-.4-3.73-.26-1.09-.7-2.03-1.3-2.81-.59-.77-1.39-1.36-2.37-1.77-.99-.41-2.23-.62-3.7-.62h-4.13s0,17.02,0,17.02Z"/>
  <path class="st1" d="M429.43,173.95l-386.4.11c9.02,52.8,18.04,105.58,27.06,158.37,16.86,91.67,70.8,136.29,164.86,136.26.45,0,.89,0,1.34,0h0c1.1,0,2.19,0,3.28-.01.52,0,1.05,0,1.57-.01,1.07-.01,2.13-.03,3.19-.06.34,0,.68-.01,1.02-.02,1.22-.03,2.43-.08,3.63-.12.18,0,.36-.01.54-.02,1.35-.06,2.69-.12,4.02-.2.04,0,.08,0,.11,0,49.11-2.88,86.14-19.23,111.64-49.48.02-.03.05-.06.07-.09.68-.81,1.35-1.62,2.01-2.45.05-.07.11-.13.16-.2.63-.79,1.25-1.6,1.87-2.41.08-.1.16-.2.24-.31.58-.77,1.16-1.55,1.73-2.34.11-.15.22-.29.33-.44.54-.75,1.06-1.51,1.59-2.27.13-.19.27-.39.4-.58.5-.73.98-1.46,1.47-2.2.16-.24.32-.47.47-.71.45-.7.89-1.4,1.33-2.11.18-.29.37-.58.55-.88.41-.67.81-1.35,1.21-2.03.2-.34.41-.68.61-1.02.37-.64.73-1.29,1.1-1.94.22-.4.45-.79.67-1.18.33-.6.66-1.22.98-1.83.24-.45.49-.9.72-1.36.3-.57.59-1.15.88-1.73.26-.51.52-1.01.77-1.53.26-.53.52-1.08.78-1.61.27-.57.55-1.13.82-1.71.23-.5.46-1,.68-1.51.29-.63.57-1.25.85-1.88.2-.46.39-.92.59-1.38.3-.69.6-1.38.89-2.08.17-.4.33-.81.49-1.21.31-.77.63-1.54.93-2.31.14-.34.26-.7.4-1.04.33-.85.65-1.69.97-2.55.11-.28.21-.58.31-.86.34-.93.68-1.86,1-2.8.08-.22.15-.44.22-.66.35-1.02.7-2.03,1.03-3.06.05-.15.09-.3.14-.45.36-1.11.71-2.22,1.06-3.35.01-.05.03-.09.04-.14,2.71-8.87,4.99-18.3,6.82-28.29l9.32-54.72,17.63-103.58ZM355,332.3l-61.15.02c0-10.62-17.56-11.77-17.56-11.77l-75.75.02s-17.55-.69-17.54,15.02c0,15.7,17.55,15.46,17.55,15.46l114.55-.03c73.38-.02,11.11,91.72-78.03,91.75-89.14.03-105.32-52.67-105.32-52.67l67.89-.02c8.33,27.71,37.42,25.39,37.42,25.39,0,0,30.02.46,30.01-23.1,0-21.25-29.87-21.24-29.87-21.24,0,0-22.22.79-35.38.79-81.29.02-85.38-36.32-85.38-36.32-6.1-39.49,44.87-39.5,44.87-39.5l76.17-.02,81.3-.02c49.41-.01,36.22,36.24,36.22,36.24ZM367.53,278.26l-56.26.02,11.99-68.1-76.28,68.12h-10.72s-10.72,0-10.72,0l-76.33-68.08,12.03,68.09-56.26.02-15.13-85.67,95.04-.02,51.35,45.8,51.32-45.83,95.05-.03-15.08,85.68Z"/>
  <path class="st0" d="M0,.13l57.16,334.58c9.06,49.29,28.83,86.64,58.76,111.03,25.94,21.14,60.19,33.06,101.95,35.56.08,0,.17,0,.25.01,1.38.08,2.76.15,4.16.21.22,0,.43.02.65.03,1.26.05,2.51.1,3.78.13.38.01.76.02,1.14.03,1.1.03,2.21.05,3.32.06.57,0,1.14,0,1.71.01.68,0,1.36.02,2.04.02.45,0,.91,0,1.37,0,.23,0,.46,0,.69,0,.23,0,.46,0,.68,0h0c21.17,0,40.58-2.23,58.18-6.63,1.53-.38,3.04-.78,4.54-1.19.34-.09.68-.19,1.02-.28,21.3-6.02,39.78-15.38,55.29-28.03,29.91-24.4,49.66-61.77,58.72-111.14l7.3-42.88L472.37,0,0,.13ZM395.67,360.54s-.03.09-.04.14c-.35,1.13-.7,2.24-1.06,3.35-.05.15-.09.3-.14.45-.34,1.03-.68,2.05-1.03,3.06-.08.22-.15.44-.22.66-.33.94-.67,1.87-1,2.8-.1.29-.2.58-.31.86-.32.86-.64,1.7-.97,2.55-.13.35-.26.7-.4,1.04-.31.78-.62,1.55-.93,2.31-.16.4-.32.81-.49,1.21-.29.7-.59,1.39-.89,2.08-.2.46-.39.92-.59,1.38-.28.63-.57,1.26-.85,1.88-.23.5-.45,1.01-.68,1.51-.27.58-.55,1.14-.82,1.71-.26.54-.51,1.08-.78,1.61-.25.51-.52,1.02-.77,1.53-.29.58-.58,1.16-.88,1.73-.24.46-.48.9-.72,1.36-.33.61-.65,1.23-.98,1.83-.22.4-.45.79-.67,1.18-.36.65-.73,1.3-1.1,1.94-.2.34-.41.68-.61,1.02-.4.68-.8,1.36-1.21,2.03-.18.3-.37.58-.55.88-.44.71-.88,1.41-1.33,2.11-.15.24-.31.47-.47.71-.48.74-.97,1.48-1.47,2.2-.13.2-.27.39-.4.58-.53.76-1.05,1.52-1.59,2.27-.11.15-.22.29-.33.44-.57.79-1.14,1.57-1.73,2.34-.08.1-.16.2-.24.31-.62.81-1.24,1.61-1.87,2.41-.05.07-.11.13-.16.2-.66.83-1.33,1.64-2.01,2.45-.02.03-.05.06-.07.09-25.5,30.25-62.53,46.6-111.64,49.48-.04,0-.08,0-.11,0-1.33.08-2.67.14-4.02.2-.18,0-.36.01-.54.02-1.2.05-2.42.09-3.63.12-.34,0-.68.02-1.02.02-1.06.03-2.12.05-3.19.06-.52,0-1.05,0-1.57.01-1.09,0-2.18.02-3.28.01h0c-.45,0-.89,0-1.34,0-94.06.03-148-44.59-164.86-136.26-9.02-52.79-18.04-105.57-27.06-158.37l386.4-.11-17.63,103.58-9.32,54.72c-1.83,9.99-4.1,19.42-6.82,28.29ZM40.79,160.93L15.56,13.26l441.25-.13-25.14,147.69-390.88.11Z"/>
  <polygon class="st1" points="90.77 49.57 84.28 30.52 76.08 30.52 76.09 57.79 81.36 57.78 81.35 38.35 81.8 38.35 81.85 38.49 88.6 57.78 92.98 57.78 99.76 38.15 100.22 38.15 100.22 57.78 105.49 57.78 105.48 30.51 97.28 30.52 91.16 49.57 90.77 49.57"/>
  <path class="st1" d="M81.79,58.22v-18.59s6.44,18.44,6.44,18.44l.05.15h5.01s6.49-18.78,6.49-18.78v18.77s6.15,0,6.15,0v-28.14s-8.96,0-8.96,0l-6.01,18.69-6.36-18.69h-8.95s0,28.14,0,28.14h6.14ZM105.48,30.51v27.26s-5.26,0-5.26,0v-19.63s-.46,0-.46,0l-6.78,19.63h-4.38s-6.74-19.29-6.74-19.29l-.05-.15h-.45s0,19.44,0,19.44h-5.27s0-27.26,0-27.26h8.2s6.48,19.04,6.48,19.04h.39s6.12-19.05,6.12-19.05h8.2Z"/>
  <path class="st1" d="M135.89,51.6l2.1,6.17h5.85s-10.2-27.26-10.2-27.26h-5.94s-10.3,27.27-10.3,27.27h5.66s2.17-6.17,2.17-6.17h10.67ZM130.41,36.9h.39s3.65,10.6,3.65,10.6h-7.79s3.76-10.6,3.76-10.6Z"/>
  <path class="st1" d="M137.67,58.21h6.8s-10.48-27.99-10.48-27.99l-.05-.14h-6.55s-10.63,28.14-10.63,28.14h6.6s2.17-6.17,2.17-6.17h10.05s2.1,6.17,2.1,6.17ZM117.39,57.77l10.3-27.27h5.94s10.2,27.26,10.2,27.26h-5.85s-2.1-6.17-2.1-6.17h-10.67s-2.17,6.17-2.17,6.17h-5.66Z"/>
  <path class="st1" d="M130.8,36.9h-.39s-3.76,10.6-3.76,10.6h7.79s-3.65-10.6-3.65-10.6ZM127.27,47.06l3.33-9.39,3.23,9.39h-6.56Z"/>
  <polygon class="st1" points="172.87 57.76 178.62 57.76 178.61 30.49 173.35 30.49 173.35 49.08 172.93 49.08 172.87 48.98 161.37 30.5 155.65 30.5 155.66 57.76 160.93 57.76 160.92 39.22 161.34 39.22 172.87 57.76"/>
  <path class="st1" d="M161.36,40.08l11.26,18.12h6.43s0-28.14,0-28.14h-6.14s0,18.16,0,18.16l-11.24-18.05-.06-.1h-6.39s0,28.14,0,28.14h6.14s0-18.12,0-18.12ZM160.93,57.76h-5.27s0-27.26,0-27.26h5.71s11.5,18.48,11.5,18.48l.06.1h.42s0-18.58,0-18.58h5.27s0,27.26,0,27.26h-5.75s-11.53-18.54-11.53-18.54h-.42s0,18.55,0,18.55Z"/>
  <path class="st1" d="M195.68,33.98c-1.14,1.29-2.03,2.83-2.63,4.56-.61,1.74-.92,3.65-.92,5.69,0,1.98.31,3.86.92,5.57.61,1.71,1.49,3.22,2.63,4.49,1.14,1.26,2.55,2.27,4.21,2.99,1.66.72,3.55,1.09,5.64,1.09,1.31,0,2.63-.28,3.91-.82,1.28-.54,2.46-1.5,3.52-2.86l.29-.38.68,3.44h3.48s0-14.54,0-14.54h-11.2s0,4.11,0,4.11h6.15s-.02.24-.02.24c-.18,1.99-.85,3.53-1.99,4.58-1.14,1.06-2.76,1.59-4.82,1.59-1.4,0-2.61-.28-3.6-.82-.98-.54-1.79-1.28-2.4-2.18-.61-.9-1.05-1.92-1.33-3.04-.28-1.11-.42-2.27-.42-3.45,0-1.23.14-2.44.41-3.58.28-1.16.72-2.21,1.33-3.12.61-.92,1.42-1.66,2.4-2.2.99-.55,2.2-.82,3.6-.82,1.52,0,2.83.41,3.89,1.21,1.03.77,1.75,1.93,2.14,3.45h5.4c-.17-1.44-.58-2.74-1.23-3.86-.68-1.18-1.56-2.19-2.6-3-1.05-.81-2.24-1.43-3.54-1.84-1.3-.42-2.67-.63-4.07-.63-2.08,0-3.98.37-5.63,1.11-1.66.73-3.07,1.76-4.21,3.05Z"/>
  <path class="st1" d="M195.36,54.59c1.18,1.31,2.65,2.35,4.36,3.1,1.71.74,3.67,1.12,5.81,1.12,1.37,0,2.74-.29,4.08-.85,1.23-.52,2.37-1.4,3.4-2.63l.57,2.86h4.28s0-15.41,0-15.41h-12.08s0,4.98,0,4.98h6.11c-.2,1.76-.82,3.12-1.83,4.06-1.05.98-2.57,1.47-4.53,1.47-1.33,0-2.47-.26-3.39-.77-.92-.51-1.68-1.2-2.25-2.05-.58-.85-1-1.83-1.27-2.9-.27-1.07-.4-2.2-.4-3.34,0-1.2.13-2.37.4-3.48.26-1.11.69-2.11,1.27-2.98.57-.86,1.33-1.55,2.25-2.06.92-.51,2.06-.77,3.39-.77,1.42,0,2.64.38,3.63,1.12.99.74,1.67,1.87,2.01,3.37l.04.17h6.23s-.02-.24-.02-.24c-.16-1.6-.6-3.04-1.31-4.28-.71-1.23-1.62-2.29-2.71-3.13-1.09-.84-2.32-1.48-3.68-1.92-1.35-.43-2.76-.65-4.2-.65-2.14,0-4.1.39-5.81,1.15-1.71.76-3.18,1.82-4.36,3.16-1.18,1.34-2.09,2.92-2.72,4.71-.63,1.79-.94,3.75-.94,5.83,0,2.03.32,3.96.95,5.72.63,1.77,1.54,3.32,2.72,4.63ZM209.59,30.45c1.3.42,2.5,1.04,3.54,1.84,1.05.81,1.92,1.82,2.6,3,.64,1.12,1.06,2.42,1.23,3.86h-5.4c-.39-1.51-1.1-2.67-2.14-3.45-1.07-.8-2.38-1.21-3.89-1.21-1.4,0-2.61.28-3.6.82-.98.54-1.79,1.29-2.4,2.2-.61.91-1.05,1.96-1.33,3.12-.27,1.15-.41,2.35-.41,3.58,0,1.18.14,2.34.42,3.45.28,1.12.72,2.14,1.33,3.04.61.91,1.42,1.64,2.4,2.18.99.55,2.2.82,3.6.82,2.06,0,3.69-.54,4.82-1.59,1.13-1.06,1.8-2.6,1.99-4.58l.02-.24h-6.15s0-4.1,0-4.1h11.2s0,14.53,0,14.53h-3.48s-.68-3.44-.68-3.44l-.29.38c-1.06,1.36-2.24,2.32-3.52,2.86-1.28.54-2.6.82-3.91.82-2.08,0-3.98-.36-5.64-1.09-1.66-.72-3.08-1.73-4.21-2.99-1.14-1.27-2.03-2.77-2.63-4.49-.61-1.71-.92-3.59-.92-5.57,0-2.03.31-3.95.92-5.69.61-1.74,1.49-3.27,2.63-4.56,1.14-1.29,2.56-2.32,4.21-3.05,1.66-.73,3.55-1.11,5.63-1.11,1.39,0,2.76.21,4.07.63Z"/>
  <polygon class="st1" points="237.31 30.48 231.66 30.48 231.66 57.74 250.82 57.74 250.82 53.05 237.32 53.06 237.31 30.48"/>
  <path class="st1" d="M251.26,58.17v-5.56s-13.5,0-13.5,0v-22.58s-6.54,0-6.54,0v28.14s20.04,0,20.04,0ZM250.82,57.74h-19.16s0-27.26,0-27.26h5.65s0,22.58,0,22.58h13.5s0,4.68,0,4.68Z"/>
  <polygon class="st1" points="263.59 30.47 263.59 57.73 284.19 57.73 284.18 53.04 269.25 53.05 269.24 45.82 282.67 45.82 282.67 41.52 269.24 41.52 269.24 35.15 283.87 35.15 283.87 30.46 263.59 30.47"/>
  <path class="st1" d="M284.62,58.16v-5.56s-14.94,0-14.94,0v-6.35s13.42,0,13.42,0v-5.17s-13.43,0-13.43,0v-5.5s14.62,0,14.62,0v-5.56s-21.16,0-21.16,0v28.14s21.47,0,21.47,0ZM269.24,35.15v6.37s13.43,0,13.43,0v4.3s-13.42,0-13.42,0v7.23s14.94,0,14.94,0v4.68s-20.59,0-20.59,0v-27.26s20.27,0,20.27,0v4.68s-14.62,0-14.62,0Z"/>
  <path class="st1" d="M320.13,54.78c-.06-.63-.11-1.24-.14-1.84-.03-.59-.05-1.11-.08-1.55-.05-.68-.15-1.38-.29-2.06-.14-.68-.36-1.3-.66-1.86-.3-.56-.68-1.04-1.15-1.45-.46-.4-1.06-.71-1.78-.9l-.16-.04v-.39l.14-.05c1.5-.6,2.59-1.48,3.25-2.62.66-1.15,1-2.54,1-4.12,0-1.03-.18-2-.55-2.88-.36-.89-.89-1.68-1.58-2.35-.69-.67-1.53-1.21-2.49-1.6s-2.07-.58-3.27-.58h-14.72s0,27.27,0,27.27h5.65s0-10.83,0-10.83h6.31c1.58,0,2.74.36,3.45,1.07.7.7,1.17,1.81,1.38,3.31.16,1.12.28,2.3.35,3.51.07,1.12.26,2.11.56,2.94h5.54c-.19-.34-.34-.72-.45-1.14-.14-.56-.25-1.17-.32-1.8ZM313.49,42c-.74.65-1.84.99-3.29.99h-6.89s0-8.23,0-8.23h6.89c1.44,0,2.55.32,3.29.96.75.65,1.12,1.69,1.12,3.09,0,1.46-.38,2.53-1.12,3.19Z"/>
  <path class="st1" d="M321.48,57.8c-.27-.36-.47-.82-.61-1.34-.14-.54-.24-1.13-.31-1.73-.06-.62-.11-1.23-.13-1.81-.03-.6-.05-1.11-.08-1.56-.05-.7-.15-1.42-.3-2.12-.15-.72-.38-1.38-.7-1.98-.32-.6-.74-1.13-1.25-1.58-.41-.35-.91-.64-1.48-.85,1.37-.63,2.38-1.51,3.02-2.62.7-1.22,1.06-2.68,1.06-4.34,0-1.09-.2-2.11-.58-3.05-.39-.94-.95-1.78-1.68-2.5-.73-.72-1.61-1.29-2.63-1.69-1.02-.41-2.17-.62-3.44-.62h-15.16s0,28.14,0,28.14h6.53s0-10.83,0-10.83h5.87c1.46,0,2.52.32,3.14.94.63.63,1.06,1.66,1.26,3.06.16,1.11.27,2.28.35,3.47.08,1.23.29,2.31.64,3.21l.05.14h6.67s-.25-.35-.25-.35ZM315.36,57.72c-.3-.83-.48-1.82-.56-2.94-.08-1.21-.19-2.39-.35-3.51-.21-1.49-.68-2.6-1.38-3.31-.71-.71-1.87-1.07-3.45-1.07h-6.31s0,10.83,0,10.83h-5.65s0-27.26,0-27.26h14.72c1.21,0,2.31.19,3.27.58s1.8.93,2.49,1.6c.69.67,1.22,1.46,1.58,2.35.36.89.55,1.86.55,2.88,0,1.58-.33,2.97-1,4.12-.66,1.14-1.75,2.02-3.25,2.62l-.14.05v.39l.16.04c.72.2,1.31.5,1.78.9.47.41.86.9,1.15,1.45.3.56.52,1.18.66,1.86.14.69.24,1.38.29,2.06.03.44.05.96.08,1.55.03.59.07,1.21.14,1.84.07.63.17,1.23.32,1.8.11.42.26.81.45,1.14h-5.54Z"/>
  <path class="st1" d="M310.2,34.75h-6.89s0,8.24,0,8.24h6.89c1.45,0,2.55-.33,3.29-.99.74-.66,1.12-1.73,1.12-3.19,0-1.4-.38-2.45-1.12-3.09-.74-.64-1.84-.96-3.29-.96ZM303.74,42.55v-7.36s6.45,0,6.45,0c1.34,0,2.34.29,3,.86.65.56.97,1.49.97,2.76,0,1.32-.33,2.29-.97,2.86-.65.58-1.66.88-3,.88h-6.45Z"/>
  <path class="st1" d="M357.66,47.45v-17.01s-5.66,0-5.66,0v17.01c0,2.11-.43,3.69-1.29,4.7-.87,1.02-2.44,1.53-4.67,1.53-1.27,0-2.3-.18-3.06-.54-.77-.36-1.38-.84-1.81-1.43-.43-.58-.72-1.25-.86-2.01-.13-.73-.2-1.49-.2-2.25v-17.01s-5.66,0-5.66,0v17.01c0,3.69,1.02,6.46,3.02,8.22,2.01,1.76,4.89,2.66,8.57,2.66,3.63,0,6.5-.9,8.55-2.68,2.04-1.77,3.07-4.53,3.07-8.2Z"/>
  <path class="st1" d="M358.1,30h-6.53s0,17.45,0,17.45c0,2.01-.4,3.49-1.19,4.42-.78.91-2.24,1.38-4.33,1.38-1.2,0-2.17-.17-2.88-.5-.7-.33-1.25-.77-1.64-1.29-.39-.52-.65-1.14-.78-1.83-.13-.71-.19-1.44-.19-2.17v-17.44s-6.53,0-6.53,0v17.44c0,3.82,1.07,6.7,3.17,8.54,2.09,1.84,5.07,2.77,8.86,2.77,3.74,0,6.71-.94,8.83-2.79,2.14-1.86,3.22-4.73,3.22-8.53v-17.44ZM346.05,58.33c-3.68,0-6.56-.89-8.57-2.66-2-1.76-3.01-4.52-3.01-8.22v-17.01s5.65,0,5.65,0v17.01c0,.76.07,1.51.2,2.25.14.76.42,1.43.86,2.01.43.58,1.04,1.06,1.81,1.43.76.36,1.8.54,3.06.54,2.23,0,3.8-.52,4.67-1.53.86-1.01,1.29-2.59,1.29-4.7v-17.01s5.65,0,5.65,0v17.01c0,3.67-1.03,6.42-3.06,8.2-2.04,1.78-4.92,2.68-8.55,2.68Z"/>
  <path class="st1" d="M372.23,57.7h11.73c2.08,0,3.91-.36,5.44-1.05,1.53-.69,2.82-1.66,3.84-2.87,1.02-1.21,1.8-2.68,2.3-4.34.51-1.68.77-3.54.77-5.52,0-2.26-.32-4.26-.94-5.94-.62-1.67-1.49-3.08-2.59-4.19-1.1-1.11-2.42-1.95-3.92-2.51-1.51-.56-3.16-.84-4.91-.84h-11.73s0,27.27,0,27.27ZM382.44,35.12c1.52,0,2.82.22,3.87.66,1.05.44,1.91,1.08,2.55,1.91.64.83,1.1,1.83,1.38,2.97.27,1.13.41,2.42.41,3.83,0,1.55-.2,2.88-.59,3.96-.4,1.08-.93,1.98-1.6,2.66-.67.68-1.44,1.18-2.3,1.47-.85.29-1.73.44-2.63.44h-5.65s0-17.89,0-17.89h4.56Z"/>
  <path class="st1" d="M383.96,58.13c2.14,0,4.03-.37,5.62-1.09,1.59-.72,2.93-1.73,3.99-2.99,1.06-1.26,1.86-2.77,2.39-4.5.52-1.72.79-3.62.78-5.65,0-2.31-.33-4.36-.97-6.09-.64-1.73-1.55-3.19-2.69-4.34-1.14-1.16-2.52-2.03-4.08-2.61-1.56-.57-3.26-.87-5.06-.87h-12.17s0,28.14,0,28.14h12.17ZM388.86,31.27c1.5.55,2.82,1.4,3.92,2.51,1.1,1.11,1.97,2.52,2.59,4.19.62,1.68.94,3.68.94,5.94,0,1.99-.26,3.85-.77,5.52-.5,1.67-1.28,3.13-2.3,4.34-1.02,1.21-2.31,2.18-3.84,2.87-1.53.7-3.36,1.05-5.44,1.05h-11.73s0-27.26,0-27.26h11.73c1.75,0,3.4.28,4.91.84Z"/>
  <path class="st1" d="M383.53,53.01c.9,0,1.79-.15,2.63-.44.85-.29,1.63-.79,2.3-1.47.67-.68,1.2-1.57,1.6-2.66.39-1.08.59-2.41.59-3.96,0-1.41-.14-2.7-.41-3.83-.28-1.15-.74-2.15-1.38-2.97-.64-.83-1.5-1.47-2.55-1.91-1.04-.44-2.35-.66-3.87-.66h-4.56s0,17.9,0,17.9h5.65ZM386.14,36.18c.98.41,1.78,1.01,2.37,1.77.6.78,1.04,1.72,1.3,2.81.27,1.1.4,2.36.4,3.73,0,1.49-.19,2.77-.57,3.81-.38,1.02-.88,1.87-1.5,2.5-.62.63-1.34,1.09-2.13,1.36-.8.28-1.64.42-2.49.42h-5.21s0-17.02,0-17.02h4.13c1.46,0,2.71.21,3.7.62Z"/>
  <path class="st1" d="M199.82,99.59c.94-.76,1.66-1.68,2.13-2.73.48-1.05.72-2.21.72-3.44,0-1.5-.32-2.75-.95-3.7-.64-.97-1.41-1.75-2.29-2.32-.88-.58-1.78-1.01-2.68-1.27-.91-.27-1.62-.45-2.13-.56-1.74-.44-3.15-.8-4.22-1.09-1.08-.29-1.94-.58-2.56-.87-.65-.3-1.08-.64-1.32-1.01-.23-.37-.34-.85-.34-1.43,0-.64.14-1.17.42-1.6.27-.41.63-.76,1.05-1.03.42-.27.9-.46,1.41-.57,1.26-.27,2.56-.18,3.64.04.66.14,1.25.37,1.76.69.52.33.94.79,1.26,1.36.29.52.47,1.17.53,1.94h5.47c-.03-1.47-.32-2.73-.88-3.77-.59-1.09-1.4-2-2.4-2.7-1.01-.7-2.18-1.22-3.48-1.54-2.42-.59-5.14-.7-7.79.02-1.21.33-2.31.84-3.27,1.52-.95.68-1.73,1.54-2.32,2.55-.59,1.01-.88,2.22-.88,3.6,0,1.23.23,2.28.69,3.14.46.86,1.07,1.59,1.82,2.16.76.58,1.63,1.06,2.58,1.42.97.37,1.98.69,3,.94,1,.28,2,.54,2.99.77.98.23,1.88.51,2.67.82.8.32,1.46.73,1.95,1.21.52.51.78,1.17.78,1.98,0,.75-.2,1.37-.59,1.86-.38.48-.86.86-1.43,1.13-.56.27-1.17.45-1.81.54-1.54.23-2.88.17-4.16-.16-.78-.2-1.46-.51-2.03-.93-.58-.42-1.06-.97-1.4-1.65-.32-.62-.5-1.38-.53-2.25h-5.46c0,1.58.31,2.96.91,4.1.63,1.21,1.49,2.21,2.55,2.99,1.07.78,2.33,1.37,3.73,1.73,1.41.37,2.89.55,4.39.55,1.86,0,3.51-.22,4.92-.65,1.4-.43,2.59-1.04,3.53-1.8Z"/>
  <path class="st1" d="M200.09,99.93c.99-.81,1.75-1.78,2.25-2.89.5-1.11.76-2.33.75-3.62,0-1.59-.35-2.92-1.03-3.94-.67-1.02-1.48-1.84-2.41-2.45-.92-.6-1.86-1.05-2.79-1.33-.92-.27-1.65-.46-2.16-.56-1.73-.44-3.14-.8-4.21-1.09-1.06-.28-1.89-.56-2.48-.84-.57-.26-.95-.55-1.13-.85-.18-.3-.28-.7-.28-1.2,0-.55.12-1,.35-1.35.24-.36.55-.67.92-.91.38-.24.8-.42,1.27-.51,1.2-.25,2.44-.17,3.46.04.61.12,1.15.34,1.61.63.46.29.83.69,1.11,1.2.28.51.45,1.17.5,1.96v.21s6.33,0,6.33,0v-.22c0-1.63-.32-3.04-.94-4.2-.62-1.15-1.47-2.11-2.53-2.85-1.05-.74-2.27-1.27-3.62-1.6-2.5-.6-5.28-.71-8,.02-1.26.34-2.41.88-3.41,1.59-1,.71-1.83,1.62-2.45,2.69-.62,1.08-.94,2.36-.94,3.82,0,1.3.25,2.42.74,3.34.49.91,1.14,1.69,1.94,2.3.79.6,1.7,1.1,2.69,1.48.99.38,2.01.7,3.05.96,1,.28,2.01.54,3,.78.96.23,1.84.5,2.61.8.75.3,1.35.67,1.81,1.12.44.43.65.97.65,1.67,0,.64-.17,1.18-.49,1.59-.34.42-.77.76-1.28,1.01-.52.25-1.08.42-1.68.5-1.49.22-2.76.17-3.99-.15-.72-.19-1.36-.48-1.89-.86-.53-.38-.95-.88-1.27-1.49h0c-.32-.61-.48-1.37-.48-2.27v-.22s-6.33,0-6.33,0v.22c-.03,1.74.29,3.26.95,4.53.66,1.27,1.56,2.32,2.68,3.14,1.12.82,2.42,1.42,3.88,1.8,1.45.38,2.96.57,4.5.57,1.9,0,3.6-.23,5.05-.67,1.46-.45,2.69-1.08,3.68-1.88ZM186.98,101.49c-1.4-.36-2.65-.95-3.73-1.73-1.07-.78-1.93-1.78-2.55-2.99-.6-1.15-.9-2.53-.91-4.1h5.46c.03.87.2,1.62.53,2.25.35.67.82,1.23,1.4,1.65.57.41,1.26.73,2.03.93,1.28.33,2.62.38,4.16.16.64-.09,1.25-.28,1.81-.54.57-.27,1.05-.65,1.43-1.13.39-.49.59-1.12.59-1.86,0-.81-.26-1.47-.78-1.98-.5-.48-1.15-.89-1.95-1.21-.79-.31-1.69-.59-2.67-.82-.98-.23-1.99-.49-2.99-.77-1.02-.26-2.03-.57-3-.94-.96-.37-1.83-.84-2.58-1.42-.75-.58-1.36-1.3-1.82-2.16-.46-.85-.69-1.91-.69-3.14,0-1.38.3-2.59.88-3.6.59-1.02,1.37-1.87,2.32-2.55.96-.68,2.05-1.19,3.27-1.52,2.65-.72,5.36-.61,7.79-.02,1.3.32,2.47.83,3.48,1.54,1,.7,1.81,1.61,2.4,2.7.56,1.04.86,2.31.88,3.77h-5.47c-.07-.77-.25-1.42-.53-1.94-.32-.57-.74-1.03-1.26-1.36-.51-.32-1.1-.55-1.76-.69-1.08-.22-2.38-.3-3.64-.04-.51.11-.99.3-1.41.57-.43.28-.78.62-1.05,1.03-.28.42-.42.96-.42,1.6,0,.58.12,1.07.34,1.43.23.38.66.71,1.32,1.01.62.29,1.48.58,2.56.87,1.07.28,2.48.65,4.22,1.09.51.1,1.23.29,2.13.56.89.26,1.79.69,2.68,1.27.88.58,1.64,1.36,2.29,2.32.63.95.95,2.2.95,3.7,0,1.23-.24,2.39-.72,3.44-.48,1.05-1.19,1.97-2.13,2.73-.94.77-2.13,1.37-3.53,1.8-1.41.43-3.06.65-4.92.65-1.5,0-2.98-.19-4.39-.55Z"/>
  <polygon class="st1" points="217.89 101.42 223.54 101.42 223.53 78.84 231.84 78.83 231.83 74.15 209.58 74.16 209.58 78.84 217.88 78.84 217.89 101.42"/>
  <path class="st1" d="M232.27,79.27v-5.56s-23.14,0-23.14,0v5.56s8.3,0,8.3,0v22.58s6.53,0,6.53,0v-22.58s8.3,0,8.3,0ZM209.58,74.16h22.26s0,4.68,0,4.68h-8.3s0,22.58,0,22.58h-5.65s0-22.58,0-22.58h-8.3s0-4.68,0-4.68Z"/>
  <path class="st1" d="M252.51,95.24l2.1,6.17h5.85s-10.2-27.26-10.2-27.26h-5.94s-10.3,27.27-10.3,27.27h5.66s2.17-6.17,2.17-6.17h10.67ZM247.03,80.54h.39s3.65,10.6,3.65,10.6h-7.79s3.76-10.6,3.76-10.6Z"/>
  <path class="st1" d="M250.61,73.85l-.05-.14h-6.55s-10.52,27.85-10.52,27.85l-.11.3h6.6s2.17-6.17,2.17-6.17h10.05s2.1,6.17,2.1,6.17h6.79s-10.48-27.99-10.48-27.99ZM234.01,101.41l10.3-27.27h5.94s10.2,27.26,10.2,27.26h-5.85s-2.1-6.17-2.1-6.17h-10.67s-2.17,6.17-2.17,6.17h-5.66Z"/>
  <path class="st1" d="M247.42,80.54h-.39s-3.76,10.6-3.76,10.6h7.79s-3.65-10.6-3.65-10.6ZM243.89,90.7l3.33-9.4,3.23,9.39h-6.56Z"/>
  <path class="st1" d="M291.69,98.46c-.06-.62-.11-1.24-.14-1.84-.03-.59-.05-1.11-.08-1.55-.05-.68-.15-1.37-.29-2.06-.14-.68-.36-1.3-.66-1.86-.3-.56-.68-1.04-1.15-1.45-.46-.4-1.06-.71-1.78-.9l-.16-.04v-.39s.14-.05.14-.05c1.5-.6,2.59-1.48,3.25-2.62.66-1.15,1-2.54,1-4.12,0-1.03-.18-2-.55-2.89-.36-.89-.9-1.68-1.58-2.35-.69-.68-1.53-1.21-2.49-1.6-.96-.39-2.07-.58-3.27-.58h-14.72s0,27.27,0,27.27h5.65s0-10.83,0-10.83h6.31c1.58,0,2.74.36,3.45,1.07.7.7,1.17,1.82,1.38,3.31.16,1.12.28,2.3.35,3.51.07,1.12.26,2.11.56,2.94h5.54c-.19-.34-.34-.72-.45-1.14-.15-.56-.25-1.17-.32-1.8ZM285.04,85.68c-.74.65-1.84.99-3.29.99h-6.89s0-8.23,0-8.23h6.89c1.44,0,2.55.32,3.29.96.74.65,1.12,1.69,1.12,3.09,0,1.46-.38,2.53-1.12,3.19Z"/>
  <path class="st1" d="M293.03,101.49c-.27-.36-.47-.81-.6-1.34-.14-.54-.24-1.12-.31-1.73-.06-.61-.11-1.22-.14-1.81-.03-.6-.05-1.12-.08-1.56-.05-.7-.15-1.41-.29-2.12-.15-.72-.38-1.38-.7-1.98-.32-.6-.74-1.13-1.25-1.58-.41-.35-.91-.64-1.48-.85,1.37-.63,2.38-1.51,3.02-2.62.7-1.22,1.06-2.68,1.06-4.34,0-1.08-.2-2.11-.58-3.05-.39-.94-.95-1.78-1.68-2.5-.73-.72-1.61-1.29-2.63-1.7-1.02-.41-2.17-.62-3.44-.62h-15.16s0,28.14,0,28.14h6.53s0-10.83,0-10.83h5.87c1.46,0,2.52.32,3.14.94.63.64,1.06,1.67,1.26,3.06.16,1.11.27,2.28.35,3.47.08,1.23.29,2.31.64,3.21l.05.14h6.67s-.26-.35-.26-.35ZM286.92,101.4c-.3-.83-.48-1.81-.56-2.94-.08-1.21-.19-2.39-.35-3.51-.21-1.49-.68-2.6-1.38-3.31-.71-.71-1.87-1.07-3.45-1.07h-6.31s0,10.83,0,10.83h-5.65s0-27.26,0-27.26h14.72c1.21,0,2.31.19,3.27.58.96.39,1.8.93,2.49,1.6.69.67,1.22,1.46,1.58,2.35.36.89.55,1.86.55,2.89,0,1.58-.34,2.97-1,4.12-.66,1.14-1.75,2.02-3.25,2.62l-.14.05v.39s.16.04.16.04c.72.2,1.31.5,1.78.9.47.41.86.9,1.15,1.45.3.56.52,1.19.66,1.86.14.69.24,1.38.29,2.06.03.44.05.95.08,1.55.03.6.07,1.21.14,1.84.07.63.17,1.23.32,1.8.11.43.26.81.45,1.14h-5.54Z"/>
  <path class="st1" d="M281.75,78.43h-6.89s0,8.24,0,8.24h6.89c1.44,0,2.55-.33,3.29-.99.74-.66,1.12-1.73,1.12-3.19,0-1.41-.38-2.45-1.12-3.09-.74-.64-1.84-.96-3.29-.96ZM281.76,86.23h-6.45s0-7.36,0-7.36h6.45c1.34,0,2.34.29,3,.85.64.56.97,1.49.97,2.76,0,1.33-.33,2.29-.97,2.86-.65.58-1.66.88-3,.88Z"/>
  <polygon class="st1" points="139.69 129.37 139.69 122.53 153.07 122.53 153.07 117.85 134.03 117.85 134.04 145.11 139.69 145.11 139.69 133.67 151.29 133.66 151.29 129.37 139.69 129.37"/>
  <path class="st1" d="M153.51,117.41h-19.91s0,28.14,0,28.14h6.53s0-11.45,0-11.45h11.6s0-5.17,0-5.17h-11.6s0-5.96,0-5.96h13.39s0-5.56,0-5.56ZM139.69,133.67v11.45s-5.65,0-5.65,0v-27.26s19.03,0,19.03,0v4.68s-13.38,0-13.38,0v6.84s11.6,0,11.6,0v4.3s-11.6,0-11.6,0Z"/>
  <path class="st1" d="M186.96,137.16c.61-1.71.92-3.59.92-5.57,0-2.04-.31-3.95-.92-5.69-.61-1.74-1.5-3.27-2.64-4.56-1.14-1.29-2.55-2.31-4.19-3.05-1.64-.73-3.55-1.1-5.65-1.1-2.08,0-3.98.37-5.63,1.11-1.66.73-3.07,1.76-4.21,3.05-1.14,1.29-2.03,2.83-2.63,4.56-.61,1.74-.92,3.65-.92,5.69,0,1.98.31,3.86.92,5.57.61,1.71,1.49,3.22,2.64,4.49,1.14,1.26,2.55,2.27,4.21,2.99,1.66.72,3.55,1.09,5.64,1.09,2.11,0,4.01-.37,5.65-1.09,1.65-.72,3.06-1.73,4.19-2.99,1.14-1.26,2.02-2.77,2.63-4.49ZM181.81,135.03c-.28,1.12-.72,2.14-1.33,3.04-.61.91-1.42,1.64-2.4,2.18-.98.55-2.2.82-3.6.82-1.4,0-2.61-.28-3.6-.82-.98-.54-1.79-1.28-2.4-2.18-.61-.9-1.05-1.92-1.33-3.04-.28-1.11-.42-2.27-.42-3.45,0-1.23.14-2.43.41-3.58.28-1.16.72-2.21,1.33-3.12.61-.92,1.42-1.66,2.4-2.2.99-.55,2.2-.82,3.6-.82,1.4,0,2.61.28,3.6.82.98.54,1.79,1.29,2.4,2.2.61.91,1.06,1.96,1.33,3.12.27,1.15.41,2.36.41,3.58,0,1.18-.14,2.34-.41,3.45Z"/>
  <path class="st1" d="M184.65,121.04c-1.18-1.34-2.64-2.4-4.34-3.16-1.7-.76-3.66-1.14-5.83-1.14-2.14,0-4.1.39-5.81,1.15-1.71.76-3.18,1.82-4.36,3.16-1.18,1.34-2.09,2.92-2.72,4.71-.63,1.79-.94,3.75-.94,5.83,0,2.03.32,3.96.95,5.72.63,1.76,1.54,3.32,2.72,4.63,1.18,1.31,2.65,2.35,4.36,3.1,1.71.75,3.67,1.12,5.81,1.12,2.17,0,4.13-.38,5.83-1.13,1.7-.75,3.17-1.79,4.34-3.1,1.18-1.31,2.09-2.87,2.72-4.63.63-1.76.94-3.68.94-5.72,0-2.09-.32-4.05-.95-5.83-.63-1.79-1.54-3.37-2.72-4.71ZM174.48,145.72c-2.08,0-3.98-.36-5.64-1.09-1.66-.72-3.08-1.73-4.21-2.99-1.14-1.27-2.03-2.78-2.64-4.49-.61-1.71-.92-3.59-.92-5.57,0-2.03.31-3.95.92-5.69.61-1.73,1.49-3.27,2.63-4.56,1.14-1.29,2.55-2.32,4.21-3.05,1.66-.73,3.55-1.11,5.63-1.11,2.11,0,4.01.37,5.65,1.1,1.65.73,3.06,1.76,4.19,3.05,1.14,1.29,2.03,2.83,2.64,4.56.61,1.74.92,3.65.92,5.69,0,1.98-.31,3.86-.92,5.57-.61,1.71-1.49,3.22-2.63,4.49-1.13,1.26-2.54,2.27-4.19,2.99-1.65.72-3.55,1.09-5.65,1.09Z"/>
  <path class="st1" d="M180.47,124.89c-.61-.92-1.42-1.66-2.4-2.2-.99-.55-2.2-.82-3.6-.82-1.4,0-2.61.28-3.6.82-.98.55-1.79,1.29-2.4,2.2-.61.91-1.05,1.96-1.33,3.12-.27,1.15-.41,2.35-.41,3.58,0,1.18.14,2.34.42,3.45.28,1.12.72,2.14,1.33,3.04.61.9,1.42,1.64,2.4,2.18.99.55,2.2.82,3.6.82,1.4,0,2.61-.28,3.6-.82.98-.54,1.79-1.28,2.4-2.18.61-.9,1.05-1.92,1.33-3.04.27-1.11.41-2.27.41-3.45,0-1.23-.14-2.43-.41-3.58-.28-1.16-.72-2.2-1.33-3.12ZM171.09,139.87c-.92-.51-1.68-1.2-2.25-2.05-.58-.85-1-1.83-1.27-2.9-.27-1.08-.4-2.2-.4-3.34,0-1.19.13-2.36.4-3.48.26-1.11.69-2.11,1.27-2.98.57-.86,1.33-1.55,2.25-2.06.92-.51,2.06-.77,3.39-.77s2.47.26,3.39.77c.92.51,1.68,1.2,2.25,2.06.58.87,1.01,1.87,1.27,2.97.27,1.12.4,2.29.4,3.48,0,1.14-.13,2.26-.4,3.34-.26,1.07-.69,2.04-1.27,2.9-.57.85-1.33,1.54-2.25,2.05-.92.51-2.06.77-3.39.77s-2.47-.26-3.39-.77Z"/>
  <polygon class="st1" points="203.83 145.09 209.49 145.09 209.48 122.51 217.78 122.51 217.78 117.83 195.52 117.83 195.53 122.52 203.83 122.51 203.83 145.09"/>
  <path class="st1" d="M218.22,117.39h-23.13s0,5.56,0,5.56h8.3s0,22.58,0,22.58h6.53s0-22.58,0-22.58h8.3s0-5.56,0-5.56ZM195.52,117.83h22.26s0,4.68,0,4.68h-8.3s0,22.58,0,22.58h-5.65s0-22.58,0-22.58h-8.3s0-4.68,0-4.68Z"/>
  <path class="st1" d="M246.5,143.22c.88-.62,1.6-1.44,2.12-2.43.52-.99.79-2.17.79-3.53,0-1.68-.41-3.13-1.22-4.32-.81-1.18-2.05-2.02-3.7-2.49l-.55-.16.52-.25c1.2-.58,2.12-1.32,2.72-2.21.61-.89.91-2.02.91-3.37,0-1.25-.21-2.32-.62-3.16-.41-.84-.99-1.52-1.73-2.03-.75-.51-1.66-.89-2.72-1.11-1.06-.23-2.26-.34-3.56-.34h-12.82s0,27.27,0,27.27h13.21c1.22,0,2.42-.16,3.57-.46,1.15-.3,2.18-.78,3.07-1.4ZM232.29,122.12h5.92c.55,0,1.09.04,1.61.14.53.1,1.01.27,1.41.51.42.25.76.61,1.01,1.05.25.45.38,1.02.38,1.7,0,1.23-.38,2.14-1.14,2.7-.73.54-1.68.82-2.81.82h-6.39s0-6.91,0-6.91ZM242.3,140c-.43.29-.94.49-1.51.61-.55.12-1.14.18-1.75.18h-6.74s0-8.04,0-8.04h6.85c1.36,0,2.48.32,3.31.95.86.65,1.29,1.73,1.29,3.22,0,.76-.13,1.39-.39,1.89-.26.5-.62.9-1.06,1.19Z"/>
  <path class="st1" d="M245.11,130.2c1.04-.57,1.85-1.28,2.42-2.12.66-.96.99-2.18.99-3.62,0-1.32-.22-2.45-.66-3.35-.44-.91-1.07-1.65-1.88-2.2-.8-.54-1.76-.94-2.87-1.18-1.09-.23-2.32-.35-3.65-.35h-13.25s0,28.14,0,28.14h13.64c1.25,0,2.49-.16,3.68-.48,1.2-.32,2.28-.81,3.21-1.47.94-.66,1.7-1.53,2.26-2.58.56-1.05.84-2.3.84-3.73,0-1.77-.44-3.3-1.3-4.56-.78-1.14-1.93-1.98-3.43-2.5ZM226.65,145.09v-27.26s12.81,0,12.81,0c1.3,0,2.5.12,3.56.34,1.05.22,1.97.6,2.72,1.11.74.51,1.32,1.19,1.73,2.03.41.85.62,1.91.62,3.16,0,1.35-.31,2.48-.91,3.37-.61.89-1.53,1.64-2.72,2.21l-.52.25.55.16c1.65.47,2.89,1.31,3.7,2.49.81,1.19,1.22,2.64,1.22,4.32,0,1.35-.27,2.54-.79,3.53-.52.99-1.24,1.8-2.12,2.43-.89.63-1.93,1.1-3.07,1.4-1.16.3-2.36.46-3.57.46h-13.21Z"/>
  <path class="st1" d="M241.49,128.21c.75-.56,1.14-1.47,1.14-2.7,0-.68-.13-1.25-.38-1.7-.25-.44-.59-.8-1.01-1.05-.41-.24-.88-.42-1.41-.51-.52-.09-1.06-.14-1.61-.14h-5.92s0,6.92,0,6.92h6.39c1.13,0,2.08-.28,2.81-.82ZM232.73,122.56h5.49c.53,0,1.04.04,1.53.13.48.09.9.24,1.26.46.35.21.64.51.85.89.21.38.32.88.32,1.48,0,1.1-.31,1.87-.96,2.35-.66.49-1.51.73-2.55.73h-5.95s0-6.04,0-6.04Z"/>
  <path class="st1" d="M242.46,133.7c-.84-.63-1.95-.96-3.31-.96h-6.85s0,8.04,0,8.04h6.74c.61,0,1.2-.06,1.75-.18.57-.12,1.08-.33,1.51-.61.44-.29.8-.69,1.06-1.19.26-.5.39-1.13.39-1.89,0-1.49-.43-2.57-1.29-3.22ZM232.74,140.35v-7.17s6.41,0,6.41,0c1.26,0,2.29.29,3.05.87.74.56,1.12,1.53,1.12,2.87,0,.68-.12,1.25-.34,1.68-.23.43-.53.77-.92,1.03-.39.26-.85.44-1.36.55-.52.11-1.08.17-1.66.17h-6.3Z"/>
  <path class="st1" d="M266.69,117.81l-10.3,27.27h5.66s2.17-6.17,2.17-6.17h10.67s2.1,6.17,2.1,6.17h5.85s-10.2-27.26-10.2-27.26h-5.94ZM265.65,134.81l3.76-10.6h.39s3.65,10.6,3.65,10.6h-7.79Z"/>
  <path class="st1" d="M272.93,117.37h-6.55s-10.52,27.85-10.52,27.85l-.11.3h6.6s2.17-6.17,2.17-6.17h10.05s2.1,6.17,2.1,6.17h6.79s-10.48-27.99-10.48-27.99l-.05-.14ZM276.98,145.07l-2.1-6.17h-10.67s-2.17,6.17-2.17,6.17h-5.66s10.3-27.26,10.3-27.26h5.94s10.2,27.26,10.2,27.26h-5.85Z"/>
  <path class="st1" d="M269.41,124.2l-3.76,10.6h7.79s-3.65-10.6-3.65-10.6h-.39ZM266.27,134.37l3.33-9.39,3.23,9.39h-6.56Z"/>
  <polygon class="st1" points="310.17 145.06 310.16 140.38 296.66 140.38 296.66 117.81 291 117.81 291.01 145.07 310.17 145.06"/>
  <path class="st1" d="M297.1,139.95v-22.58s-6.53,0-6.53,0v28.14s20.04,0,20.04,0v-5.56s-13.5,0-13.5,0ZM296.66,117.81v22.58s13.51,0,13.51,0v4.68s-19.15,0-19.15,0v-27.26s5.65,0,5.65,0Z"/>
  <polygon class="st1" points="338.41 145.06 338.41 140.37 324.91 140.38 324.9 117.8 319.25 117.8 319.25 145.06 338.41 145.06"/>
  <path class="st1" d="M325.34,139.94v-22.58s-6.54,0-6.54,0v28.14s20.04,0,20.04,0v-5.56s-13.5,0-13.5,0ZM324.9,117.8v22.58s13.51,0,13.51,0v4.68s-19.15,0-19.15,0v-27.26s5.65,0,5.65,0Z"/>
  <polygon class="st1" points="100.03 81.92 95.32 67.01 90.5 81.92 74.59 81.93 87.56 91.56 82.53 106.86 95.33 97.44 108.13 106.85 103.14 91.56 115.99 81.91 100.03 81.92"/>
  <polygon class="st1" points="381.91 81.84 377.09 66.93 372.38 81.84 356.42 81.84 369.28 91.48 364.3 106.78 377.1 97.36 389.9 106.77 384.85 91.48 397.82 81.83 381.91 81.84"/>
  <path class="st0" d="M318.79,296.05l-81.3.02-76.17.02s-50.97.01-44.87,39.5c0,0,4.09,36.34,85.38,36.32,13.16,0,35.38-.79,35.38-.79,0,0,29.86,0,29.87,21.24,0,23.56-30.01,23.1-30.01,23.1,0,0-29.09,2.32-37.42-25.39l-67.89.02s16.18,52.69,105.32,52.67c89.14-.03,151.41-91.77,78.03-91.75l-114.55.03s-17.55.24-17.55-15.46c0-15.71,17.54-15.02,17.54-15.02l75.75-.02s17.55,1.15,17.56,11.77l61.15-.02s13.2-36.26-36.22-36.24Z"/>
  <polygon class="st0" points="236.25 238.43 184.9 192.63 89.86 192.66 104.99 278.33 161.25 278.31 149.22 210.22 225.55 278.3 236.26 278.29 246.98 278.29 323.26 210.17 311.27 278.27 367.53 278.26 382.62 192.57 287.57 192.6 236.25 238.43"/>
</svg>